<?xml version="1.0" encoding="utf-8"?>
<!-- Generator: Adobe Illustrator 23.0.3, SVG Export Plug-In . SVG Version: 6.00 Build 0)  -->
<svg version="1.1" id="Layer_1" xmlns="http://www.w3.org/2000/svg" xmlns:xlink="http://www.w3.org/1999/xlink" x="0px" y="0px"
	 viewBox="0 0 1200 1200" enable-background="new 0 0 1200 1200" xml:space="preserve">
<path fill="#ffffff" d="M460.128,419.355c19.004-0.555,44.465,0.267,71.789,5.537c16.377,3.159,32.569,4.558,47.585,4.558
	c30.174,0,55.571-5.658,68.106-14.066c5.314,24.882,6.439,45.41-6.755,66.568c-0.222,0.353-0.391,0.736-0.505,1.136l-0.68,2.368
	C612.981,454.738,531.432,433.024,460.128,419.355z M533.616,416.087c53.804,10.372,101.157,0.907,111.806-10.336
	c-0.274-1.155-0.544-2.301-0.831-3.474l-7.255-29.801c-9.991,2.476-25.168,1.755-33.057-13.772
	c-6.49-12.78-2.298-24.184,3.492-31.784c-13.663-2.137-23.013-8.698-29.201-15.274c-45.436,23.672-90.901,55.833-135.154,95.633
	c-1.219,1.096-1.849,2.575-1.824,4.128C460.807,409.805,495.433,408.72,533.616,416.087z M609.738,782.13
	c170.098-22.867,234.31-134.147,253.812-180.163c-8.358-2.323-15.795-7.086-21.46-13.492c-2.329,0.108-4.663,0.213-7.094,0.292
	c-6.561,0.219-12.952,0.324-19.159,0.324c-144.239,0-193.976-56.452-196.108-58.958c-0.047-0.055-0.072-0.126-0.116-0.184
	c-166.666,55.988-220.046,199.598-229.11,228.055c-0.593,1.857,0.073,3.834,1.655,4.923
	C405.966,772.437,462.466,801.926,609.738,782.13z M834.701,579.803c0.461-0.015,0.886-0.039,1.343-0.055
	c-2.279-4.323-3.891-9.052-4.619-14.082c-0.639-4.412-0.601-8.796,0.034-13.054c-115.306-0.577-178.257-42.52-190.69-51.737
	c-12.99,6.479-13.48,20.07-13.279,24.429C635.169,533.111,691.534,584.56,834.701,579.803z M578.495,296.554
	c49.244-19.638,95.328-32.301,137.039-37.647c1.989-0.258,3.552,1.374,5.24,2.468c44.586,28.873,95.372,48.008,147.909,55.817
	c9.713,1.444,19.483,2.504,29.28,3.178c23.979,28.975,38.767,65.023,41.649,101.72c0.061,0.78,0.321,1.515,0.745,2.146
	c2.007,26.398,2.985,58.48,2.731,88.734c-3.981,2.874-16.085,10.915-35.447,18.053c-0.253-1.638-1.047-3.193-2.347-4.387
	c-9.069-8.35-21.334-12.552-33.6-11.571c-12.149,0.987-23.471,7.022-31.071,16.555c-2.951,3.701-5.238,7.762-6.853,12.05
	c-111.782-0.016-174.77-40.787-187.211-49.711c0,0,2.24-7.798,2.24-7.799c1.883-6.554,6.033-12.124,8.278-18.527
	c2.503-7.141,3.194-15.135,3.211-22.656c0.063-26.546-9.159-53.615-15.38-79.319c-0.656-2.709-3.575-4.147-6.112-3.069
	c-0.756,0.312-18.578,7.682-26.523-7.95c-8.015-15.779,7.517-27.316,8.227-27.831c3.362-2.44,1.601-8.137-2.604-8.137
	c-0.161-0.003-0.365,0.003-0.549,0.003C593.476,318.674,582.43,303.745,578.495,296.554z M718.196,348.296
	c0.267,9.108,7.867,16.274,16.974,16.007c9.108-0.267,16.274-7.867,16.007-16.975c-0.267-9.108-7.867-16.274-16.975-16.007
	C725.095,331.588,717.928,339.188,718.196,348.296z M722.016,251.462l-0.38-0.251L891.531,50l6.949,261.462
	C835.528,307.118,774.591,286.411,722.016,251.462z M827.891,155.435l11.469,9.023c1.129,0.888,1.808,2.231,1.853,3.667
	l0.458,14.585c0.142,4.536,5.872,6.419,8.678,2.853l9.023-11.469c0.888-1.13,2.231-1.809,3.668-1.854l14.585-0.457
	c4.536-0.143,6.42-5.873,2.853-8.679l-11.469-9.022c-1.129-0.889-1.808-2.232-1.853-3.669l-0.458-14.585
	c-0.142-4.536-5.872-6.419-8.678-2.853l-9.023,11.47c-0.888,1.128-2.231,1.807-3.668,1.853l-14.585,0.458
	C826.208,146.899,824.324,152.629,827.891,155.435z M800.152,236.798l11.469,9.023c1.13,0.888,1.808,2.231,1.853,3.667l0.458,14.585
	c0.143,4.536,5.873,6.419,8.679,2.853l9.022-11.47c0.889-1.128,2.231-1.807,3.668-1.853l14.586-0.457
	c4.536-0.143,6.419-5.873,2.853-8.679l-11.47-9.023c-1.129-0.888-1.807-2.231-1.853-3.667l-0.458-14.585
	c-0.142-4.536-5.872-6.419-8.678-2.853l-9.023,11.47c-0.888,1.128-2.231,1.807-3.667,1.853l-14.586,0.457
	C798.469,228.262,796.585,233.992,800.152,236.798z M873.954,560.271c0.87,6.794,5.429,12.412,11.413,15.06
	c50.071-7.985,56.749-23.118,56.812-23.273c5.276-12.531,4.237-23.358,2.823-29.483c-9.804,6.52-33.216,19.771-68.998,26.299
	C874.169,552.336,873.442,556.272,873.954,560.271z M890.684,529.76c1.349-0.105,2.698-0.123,4.032-0.041
	c-3.158-0.193-7.721-4.068-11.198-4.847c-13.342-2.992-27.325,1.606-35.882,12.339c-6.149,7.711-8.753,17.361-7.334,27.171
	c2.473,17.074,17.326,30.067,34.549,30.219c0.108,0,0.219,0.003,0.327,0.003c9.077,0,17.58-3.352,24.073-9.366
	c-1.323,0.301-2.672,0.508-4.041,0.619c-14.727,1.15-28.277-9.787-30.155-24.447c-0.987-7.72,1.159-15.29,6.047-21.32
	C875.992,534.057,882.947,530.39,890.684,529.76z M658.894,954.854l4.842,23.101c4.512-0.816,6.565-2.207,7.832-5.258
	c0.196-0.651,0.429-1.32,0.698-2.015c0.864-2.248,3.352-3.407,5.623-2.637c2.28,0.774,3.542,3.206,2.861,5.515
	c-0.207,0.712-0.438,1.384-0.686,2.023c-0.575,2.038-0.45,3.524,0.321,6.082c2.499,8.269,11.761,8.981,14.54,9.004
	c0.07,0,0.137,0,0.204,0c2.902,0,5.697-0.505,8.236-1.438c0.077-0.034,0.164-0.05,0.242-0.079c2.599-0.99,4.916-2.439,6.777-4.285
	c3.083-3.06,4.715-6.984,4.715-11.343c0-2.312-0.488-4.575-1.451-6.727c-0.981-2.19-0.061-4.765,2.085-5.839
	c2.14-1.074,4.759-0.271,5.927,1.825c4.244,7.615,8.454,11.705,13.796,13.031c0.046,0.009,0.091,0.016,0.137,0.026
	c1.547,0.368,3.173,0.543,4.941,0.464c1.083-0.038,2.368-0.248,3.577-0.529l-8.9-31.289
	C694.333,958.178,670.217,957.057,658.894,954.854z M723.388,979.373c-1.063,4.464-3.349,8.552-6.686,11.863
	c-1.858,1.842-4.028,3.387-6.391,4.65c0,0,8.604,40.15,8.644,40.339c0.495,2.31-1.041,4.858-3.53,5.344
	c-14.896,2.899-24.701,7.507-24.797,7.553c-1.089,0.515-2.022,1.234-2.872,2.032c19.756-0.044,37.604,4.273,52.952,10.451
	c23.436,0.431,56.374,10.083,81.683,53.111c3.072,5.222,10.149,7.15,15.495,4.015c5.372-3.162,7.174-10.111,4.009-15.489
	c-7.007-11.915-14.977-22.355-23.689-31.033c-3.449-3.435,0.585-9.298,5.036-7.254c23.663,10.865,38.348,25.983,39.949,27.678
	c9.715,10.282,26.399-4.879,16.532-15.459c-9.141-9.802-20.469-17.977-31.919-24.815c-23.634-14.115-50.888-22.251-78.551-20.782
	c-4.26,0.226-8.508,0.671-12.724,1.328c-4.051,0.631-14.046,5.107-15.454-1.448c0,0-10.22-47.714-10.22-47.714
	C728.005,982.687,725.535,981.16,723.388,979.373z M460.336,794.264c-28.807-4.01-48.192-10.712-60.69-16.752
	c-12.331,13.215-26.887,27.747-43.37,43.277c-28.686,27.031-104.42,86.931-105.182,87.533c0.055-0.023-0.158,0.169-0.164,0.342
	c-0.012,0.674,0.85,2.02,1.626,2.774c0.088,0.085,0.201,0.201,0.28,0.295c15.565,17.758,44.718,30.371,75.629,7.492
	c0.022-0.016,0.047-0.025,0.069-0.041c0.017-0.013,0.03-0.029,0.047-0.041C329.163,918.74,386.491,878.636,460.336,794.264z
	 M911.144,579.006c1.055,2.485,0.741,5.384-0.994,7.597c-7.451,9.493-18.187,15.398-30.027,16.692
	c-3.218,34.585-3.881,98.309,22.763,161.617c0.4,0.952,1.209,1.156,1.655,1.191c0.359,0.047,1.285,0.009,1.872-0.926
	c18.893-29.892,59.476-108.419,35.055-199.594C935.656,569.884,926.269,574.793,911.144,579.006z M870.723,607.98
	c-12.159,27.829-39.049,75.781-91.589,116.206c-25.085,113.86-67.799,147.789-91.087,157.865
	c-26.415,11.431-45.483,3.445-54.978-2.844c-21.534,27.536-38.187,40.374-51.766,49.007l-8.067,72.085
	c8.11-0.003,15.271-4.209,17.818-10.47c2.016-4.955,10.041-2.362,8.454,2.969c-0.514,1.72-0.742,3.498-0.683,5.276
	c0.295,8.916,8.13,16.288,17.049,16.058c12.146-0.313,19.644-11.35,17.31-22.975c-0.081-0.264-0.157-0.532-0.23-0.799
	c-1.454-5.348,6.64-7.974,8.548-2.693c0.123,0.342,0.231,0.704,0.324,1.08c2.184,6.838,8.578,11.553,15.807,11.553
	c0.339,0,0.797-0.026,1.314-0.07c0,0-3.147-16.423-3.149-16.436c0,0-7.198-34.335-7.207-34.378c-0.758-3.616,3.085-6.58,6.388-4.934
	c0.184,0.085,23.452,10.488,81.649-9.931c1.885-0.777,83.185-35.155,142.754-143.499c4.434-9.775,8.688-19.533,12.651-29.007
	C868.546,702.321,867.994,643.192,870.723,607.98z M481.566,862.942c11.907-11.901,23.852-24.889,34.615-38.403
	c-5.675-7.378-8.018-17.127-5.719-26.708c-14.615-0.193-27.72-1-39.436-2.253c-0.104,0.156-0.199,0.317-0.324,0.461
	c-64.494,74.414-117.327,115.887-132.575,127.246l2.447,2.324c0.099,0.096,0.193,0.193,0.283,0.298
	c15.489,17.673,36.35,19.924,58.733,6.324l9.895-6.891c0.314-0.32,0.688-0.569,1.085-0.782c5.065-3.775,25.424-19.225,49.429-41.071
	L481.566,862.942z M518.033,919.887l-29.161,25.565c-9.574,8.394-21.588,12.593-33.591,12.593c-10.494,0-20.978-3.207-29.834-9.622
	c-7.316,8.826-29.004,33.623-70.09,70.223c-50.409,44.902-77.67,61.766-81.833,64.248c-0.599,0.733-0.599,1.819,0.047,2.552
	l5.69,6.496c13.32,15.194,30.78,19.238,49.127,11.393c6.301-2.692,12.382-6.826,18.079-12.292l46.162-40.766
	c0.455-0.41,33.431-30.122,65.975-68.448c1.6-1.889,4.426-2.123,6.321-0.517c1.889,1.603,2.12,4.435,0.517,6.321
	c-25.363,29.87-50.98,54.563-61.654,64.552c10.893,3.685,24.711,3.851,37.064,0.125c6.692-2.023,13.045-5.673,18.882-10.85
	l3.667-3.232c8.803-7.74,23.539-20.692,45.223-42.055c25.166-24.794,44.396-47.471,55.16-60.829
	c-3.24,0.683-6.467,1.031-9.662,1.031C541.191,936.375,528.795,930.762,518.033,919.887z M628.623,870.29
	c1.405-1.839,4.431-2.345,6.388-0.762c6.213,5.031,23.474,15.536,49.474,4.289c21.038-9.101,59.195-39.615,83.578-141.495
	c-30.487,21.347-68.782,39.901-116.625,51.229c-1.5,9.471,3.072,18.882,11.727,23.512c11.054,5.909,24.838,1.729,30.75-9.317
	c1.165-2.187,3.889-3.01,6.07-1.836c2.184,1.168,3.007,3.886,1.837,6.07c-8.137,15.18-27.699,21.117-42.888,12.99
	c-11.02-5.893-17.288-17.352-16.704-29.362c-10.029,2.124-20.444,3.95-31.296,5.409c-35.292,4.745-65.474,6.723-91.26,6.838
	c-0.034,0.191-0.058,0.383-0.118,0.572c-3.734,11.956,2.955,24.724,14.911,28.461c5.793,1.807,11.942,1.255,17.32-1.559
	c5.372-2.818,9.331-7.559,11.142-13.352c0.739-2.359,3.247-3.693,5.618-2.943c2.365,0.739,3.682,3.253,2.943,5.617
	c-2.526,8.079-8.044,14.692-15.541,18.622c-7.325,3.839-16.264,4.643-24.155,2.175c-3.378-1.055-6.436-2.648-9.151-4.625
	c-37.315,46.613-88.214,86.851-103.461,98.469c2.668,3.224,5.208,6.822,8.528,9.476c15.74,13.778,39.489,13.752,55.252-0.061
	l31.705-27.79c22.411-21.532,57.531-58.891,85.136-93.504c3.58-4.488,10.671,1.01,7.015,5.591
	c-26.352,33.041-59.477,68.543-82.263,90.806c14.745,14.79,32.458,17.609,50.272,7.882
	C588.576,913.139,605.715,900.32,628.623,870.29z M661.321,1062.964c-2.263,0.488-4.852-0.933-5.352-3.542l-10.137-53.074
	c-1.44-0.753-2.812-1.623-4.082-2.631c-1.939,7.895-8.077,14.431-16.118,17.499c0,0,8.069,42.233,8.124,42.52
	c0.477,2.496-1.201,4.836-3.641,5.263c-14.835,2.566-24.558,6.855-24.963,7.036c-5.685,2.549-8.242,9.255-5.691,14.949
	c2.552,5.69,9.255,8.242,14.955,5.696c11.853-5.294,24.023-7.194,36.885-7.194c24.446,0,58.82,9.556,84.218,54.889
	c7.089,12.653,26.931,1.762,19.744-11.064c-6.765-12.07-14.514-22.674-23.034-31.518c-1.509-1.565-1.676-3.988-0.4-5.746
	c1.276-1.755,3.623-2.347,5.585-1.401c23.854,11.558,38.709,27.789,39.361,28.509c6.579,7.255,19.18,2.836,19.719-6.938
	c0.166-3.016-0.853-5.918-2.867-8.169C791.37,1105.528,737.458,1046.521,661.321,1062.964z"/>
</svg>
